<?xml version="1.0" encoding="UTF-8"?>
<svg xmlns="http://www.w3.org/2000/svg" xmlns:xlink="http://www.w3.org/1999/xlink" width="100%" height="100%" viewBox="0 0 1440 800" preserveAspectRatio="xMidYMid slice" fill="none">
    <defs>
        <linearGradient id="grad1" x1="0%" y1="0%" x2="100%" y2="100%">
            <stop offset="0%" style="stop-color:#409EFF;stop-opacity:0.4"/>
            <stop offset="100%" style="stop-color:#409EFF;stop-opacity:0.2"/>
        </linearGradient>
        <linearGradient id="grad2" x1="0%" y1="0%" x2="100%" y2="0%">
            <stop offset="0%" style="stop-color:#409EFF;stop-opacity:0.3"/>
            <stop offset="100%" style="stop-color:#36D1DC;stop-opacity:0.3"/>
        </linearGradient>
    </defs>
    <style>
        .float {
            animation: float 8s ease-in-out infinite;
            transform-origin: center;
        }
        .float-reverse {
            animation: float-reverse 7s ease-in-out infinite;
            transform-origin: center;
        }
        .float-slow {
            animation: float 12s ease-in-out infinite;
            transform-origin: center;
        }
        .rotate {
            animation: rotate 20s linear infinite;
            transform-origin: center;
        }
        .pulse {
            animation: pulse 4s ease-in-out infinite;
            transform-origin: center;
        }
        @keyframes float {
            0% { transform: translate(0, 0); }
            50% { transform: translate(0, 15px); }
            100% { transform: translate(0, 0); }
        }
        @keyframes float-reverse {
            0% { transform: translate(0, 0); }
            50% { transform: translate(0, -10px); }
            100% { transform: translate(0, 0); }
        }
        @keyframes rotate {
            from { transform: rotate(0deg); }
            to { transform: rotate(360deg); }
        }
        @keyframes pulse {
            0% { transform: scale(1); opacity: 0.3; }
            50% { transform: scale(1.1); opacity: 0.5; }
            100% { transform: scale(1); opacity: 0.3; }
        }
    </style>
    
    <rect width="100%" height="100%" fill="transparent"/>
    
    <!-- 装饰性图形组 1 - 右上角 -->
    <g opacity="0.25">
        <circle class="float" cx="1300" cy="150" r="5" fill="#409EFF"/>
        <circle class="float-reverse" cx="1320" cy="180" r="4" fill="#409EFF"/>
        <circle class="float-slow" cx="1280" cy="170" r="3" fill="#409EFF"/>
        <path class="float" d="M1250 120Q1275 100 1300 120T1350 120" stroke="#409EFF" stroke-width="2" fill="none"/>
        <circle class="pulse" cx="1290" cy="160" r="25" fill="url(#grad1)"/>
    </g>
    
    <!-- 装饰性图形组 2 - 左下角 -->
    <g opacity="0.25">
        <circle class="float-slow" cx="120" cy="600" r="5" fill="#409EFF"/>
        <circle class="float" cx="150" cy="620" r="4" fill="#409EFF"/>
        <circle class="float-reverse" cx="140" cy="580" r="3" fill="#409EFF"/>
        <path class="float-reverse" d="M100 590Q125 570 150 590T200 590" stroke="#409EFF" stroke-width="2" fill="none"/>
        <circle class="pulse" cx="130" cy="600" r="30" fill="url(#grad1)"/>
    </g>
    
    <!-- 中间散布的装饰元素 -->
    <g opacity="0.2">
        <!-- 点阵群1 -->
        <g class="float">
            <circle cx="600" cy="300" r="3" fill="#409EFF"/>
            <circle cx="620" cy="310" r="2.5" fill="#409EFF"/>
            <circle cx="580" cy="290" r="2" fill="#409EFF"/>
            <path d="M580 300L620 300" stroke="#409EFF" stroke-width="1.5"/>
        </g>
        
        <!-- 点阵群2 -->
        <g class="float-reverse">
            <circle cx="900" cy="200" r="3" fill="#409EFF"/>
            <circle cx="920" cy="210" r="2.5" fill="#409EFF"/>
            <circle cx="880" cy="190" r="2" fill="#409EFF"/>
            <path d="M880 200L920 200" stroke="#409EFF" stroke-width="1.5"/>
        </g>
        
        <!-- 环形装饰 -->
        <g class="rotate" opacity="0.25">
            <circle cx="750" cy="400" r="40" stroke="url(#grad2)" stroke-width="2" fill="none"/>
            <circle cx="750" cy="400" r="35" stroke="url(#grad2)" stroke-width="1.5" fill="none"/>
            <path d="M710 400L790 400" stroke="#409EFF" stroke-width="1.5"/>
            <path d="M750 360L750 440" stroke="#409EFF" stroke-width="1.5"/>
        </g>
        
        <!-- 其他散布的点 -->
        <circle class="float" cx="400" cy="350" r="3" fill="#409EFF"/>
        <circle class="float-reverse" cx="1100" cy="450" r="3" fill="#409EFF"/>
        <circle class="float-slow" cx="300" cy="200" r="2.5" fill="#409EFF"/>
        <circle class="float" cx="1000" cy="300" r="2.5" fill="#409EFF"/>
    </g>
    
    <!-- 装饰性线条 -->
    <g opacity="0.2">
        <path d="M1250 100L1300 150" stroke="#409EFF" stroke-width="2"/>
        <path d="M100 550L150 600" stroke="#409EFF" stroke-width="2"/>
        <path class="float-slow" d="M1200 200C1220 180 1240 180 1260 200" stroke="#409EFF" stroke-width="2"/>
        <path class="float" d="M80 500C100 480 120 480 140 500" stroke="#409EFF" stroke-width="2"/>
        
        <!-- 添加更多装饰性线条 -->
        <path class="float" d="M400 200L450 200" stroke="#409EFF" stroke-width="1.5"/>
        <path class="float-reverse" d="M900 500L950 500" stroke="#409EFF" stroke-width="1.5"/>
        <path d="M700 300Q725 280 750 300T800 300" stroke="#409EFF" stroke-width="1.5"/>
    </g>
    
    <!-- 渐变装饰圆 -->
    <g opacity="0.15">
        <circle class="pulse" cx="500" cy="400" r="50" fill="url(#grad1)"/>
        <circle class="pulse" cx="1000" cy="200" r="45" fill="url(#grad1)"/>
        <circle class="pulse" cx="200" cy="300" r="40" fill="url(#grad1)"/>
    </g>
</svg> 